<?xml version="1.0" encoding="utf-8"?>
<svg xmlns="http://www.w3.org/2000/svg" xmlns:xlink="http://www.w3.org/1999/xlink" style="margin: auto; background: rgb(255, 255, 255); display: block; shape-rendering: auto;" width="202px" height="202px" viewBox="0 0 100 100" preserveAspectRatio="xMidYMid">
<g transform="rotate(0 50 50)">
  <rect x="47" y="24" rx="3" ry="6" width="6" height="12" fill="#0035ea">
    <animate attributeName="opacity" values="1;0" keyTimes="0;1" dur="1.1627906976744187s" begin="-1.0901162790697674s" repeatCount="indefinite"></animate>
  </rect>
</g><g transform="rotate(22.5 50 50)">
  <rect x="47" y="24" rx="3" ry="6" width="6" height="12" fill="#0035ea">
    <animate attributeName="opacity" values="1;0" keyTimes="0;1" dur="1.1627906976744187s" begin="-1.0174418604651163s" repeatCount="indefinite"></animate>
  </rect>
</g><g transform="rotate(45 50 50)">
  <rect x="47" y="24" rx="3" ry="6" width="6" height="12" fill="#0035ea">
    <animate attributeName="opacity" values="1;0" keyTimes="0;1" dur="1.1627906976744187s" begin="-0.9447674418604651s" repeatCount="indefinite"></animate>
  </rect>
</g><g transform="rotate(67.5 50 50)">
  <rect x="47" y="24" rx="3" ry="6" width="6" height="12" fill="#0035ea">
    <animate attributeName="opacity" values="1;0" keyTimes="0;1" dur="1.1627906976744187s" begin="-0.872093023255814s" repeatCount="indefinite"></animate>
  </rect>
</g><g transform="rotate(90 50 50)">
  <rect x="47" y="24" rx="3" ry="6" width="6" height="12" fill="#0035ea">
    <animate attributeName="opacity" values="1;0" keyTimes="0;1" dur="1.1627906976744187s" begin="-0.7994186046511628s" repeatCount="indefinite"></animate>
  </rect>
</g><g transform="rotate(112.5 50 50)">
  <rect x="47" y="24" rx="3" ry="6" width="6" height="12" fill="#0035ea">
    <animate attributeName="opacity" values="1;0" keyTimes="0;1" dur="1.1627906976744187s" begin="-0.7267441860465116s" repeatCount="indefinite"></animate>
  </rect>
</g><g transform="rotate(135 50 50)">
  <rect x="47" y="24" rx="3" ry="6" width="6" height="12" fill="#0035ea">
    <animate attributeName="opacity" values="1;0" keyTimes="0;1" dur="1.1627906976744187s" begin="-0.6540697674418605s" repeatCount="indefinite"></animate>
  </rect>
</g><g transform="rotate(157.5 50 50)">
  <rect x="47" y="24" rx="3" ry="6" width="6" height="12" fill="#0035ea">
    <animate attributeName="opacity" values="1;0" keyTimes="0;1" dur="1.1627906976744187s" begin="-0.5813953488372093s" repeatCount="indefinite"></animate>
  </rect>
</g><g transform="rotate(180 50 50)">
  <rect x="47" y="24" rx="3" ry="6" width="6" height="12" fill="#0035ea">
    <animate attributeName="opacity" values="1;0" keyTimes="0;1" dur="1.1627906976744187s" begin="-0.5087209302325582s" repeatCount="indefinite"></animate>
  </rect>
</g><g transform="rotate(202.5 50 50)">
  <rect x="47" y="24" rx="3" ry="6" width="6" height="12" fill="#0035ea">
    <animate attributeName="opacity" values="1;0" keyTimes="0;1" dur="1.1627906976744187s" begin="-0.436046511627907s" repeatCount="indefinite"></animate>
  </rect>
</g><g transform="rotate(225 50 50)">
  <rect x="47" y="24" rx="3" ry="6" width="6" height="12" fill="#0035ea">
    <animate attributeName="opacity" values="1;0" keyTimes="0;1" dur="1.1627906976744187s" begin="-0.3633720930232558s" repeatCount="indefinite"></animate>
  </rect>
</g><g transform="rotate(247.5 50 50)">
  <rect x="47" y="24" rx="3" ry="6" width="6" height="12" fill="#0035ea">
    <animate attributeName="opacity" values="1;0" keyTimes="0;1" dur="1.1627906976744187s" begin="-0.29069767441860467s" repeatCount="indefinite"></animate>
  </rect>
</g><g transform="rotate(270 50 50)">
  <rect x="47" y="24" rx="3" ry="6" width="6" height="12" fill="#0035ea">
    <animate attributeName="opacity" values="1;0" keyTimes="0;1" dur="1.1627906976744187s" begin="-0.2180232558139535s" repeatCount="indefinite"></animate>
  </rect>
</g><g transform="rotate(292.5 50 50)">
  <rect x="47" y="24" rx="3" ry="6" width="6" height="12" fill="#0035ea">
    <animate attributeName="opacity" values="1;0" keyTimes="0;1" dur="1.1627906976744187s" begin="-0.14534883720930233s" repeatCount="indefinite"></animate>
  </rect>
</g><g transform="rotate(315 50 50)">
  <rect x="47" y="24" rx="3" ry="6" width="6" height="12" fill="#0035ea">
    <animate attributeName="opacity" values="1;0" keyTimes="0;1" dur="1.1627906976744187s" begin="-0.07267441860465117s" repeatCount="indefinite"></animate>
  </rect>
</g><g transform="rotate(337.5 50 50)">
  <rect x="47" y="24" rx="3" ry="6" width="6" height="12" fill="#0035ea">
    <animate attributeName="opacity" values="1;0" keyTimes="0;1" dur="1.1627906976744187s" begin="0s" repeatCount="indefinite"></animate>
  </rect>
</g>
<!-- [ldio] generated by https://loading.io/ --></svg>